<?xml version="1.0" encoding="UTF-8"?><svg xmlns="http://www.w3.org/2000/svg" viewBox="0 0 332.836 98.16"><defs><style>.cls-1{fill:#231f20;}.cls-2{isolation:isolate;}.cls-3{fill:#00a15c;}.cls-4{fill:#c0c2c4;fill-rule:evenodd;}</style></defs><g id="Background_Rec" class="cls-2"><g id="Background_Rec-2"><path class="cls-4" d="M300.145,53.58H33.29c-3.341,0-6.05,3.905-6.05,8.723v14.054c0,4.818,2.708,8.723,6.05,8.723h266.855c3.341,0,6.05-3.905,6.05-8.723v-14.054c0-4.818-2.708-8.723-6.05-8.723Z"/></g></g><g id="powered_by"><path class="cls-3" d="M28.177,25.108c-.035-.049-.052-.108-.052-.177v-10.268c0-.069.017-.128.052-.177.034-.049.101-.074.199-.074h1.874c.079,0,.14.025.184.074.044.049.066.108.066.177v.944c.216-.423.507-.748.871-.974.364-.226.802-.339,1.313-.339.256,0,.504.03.745.089.241.059.465.145.671.258.207.113.4.253.583.421.182.167.342.361.479.583s.256.467.354.738.175.565.229.885c.054.319.081.662.081,1.025s-.027.706-.081,1.025c-.054.32-.131.615-.229.885-.098.271-.216.517-.354.738s-.297.418-.479.59c-.182.172-.376.315-.583.428-.207.113-.431.199-.671.258-.241.059-.489.088-.745.088-.511,0-.949-.116-1.313-.347s-.654-.558-.871-.981v3.954c0,.069-.022.128-.066.177-.044.049-.105.074-.184.074h-1.874c-.099,0-.165-.025-.199-.074ZM33.053,19.871c.285-.354.428-.885.428-1.594,0-.718-.143-1.251-.428-1.601-.286-.349-.645-.524-1.077-.524-.423,0-.774.175-1.055.524-.281.349-.421.883-.421,1.601,0,.708.14,1.239.421,1.594.28.354.632.531,1.055.531.433,0,.792-.177,1.077-.531Z"/><path class="cls-3" d="M36.991,17.384c.049-.28.121-.546.214-.796.094-.251.207-.482.339-.693.133-.211.285-.403.458-.576s.361-.322.568-.45.425-.238.657-.332c.231-.093.474-.162.73-.207s.521-.066.797-.066.541.022.797.066c.255.044.501.113.737.207.236.094.455.204.657.332s.388.278.561.45c.172.172.327.364.465.576s.253.442.347.693c.093.25.165.516.214.796s.074.578.074.893-.024.615-.074.9c-.049.286-.121.554-.214.804-.094.251-.209.479-.347.686s-.293.396-.465.568-.359.325-.561.458-.42.244-.657.332c-.236.088-.482.155-.737.199-.256.044-.521.066-.797.066s-.541-.022-.797-.066c-.256-.044-.499-.111-.73-.199-.231-.088-.45-.199-.657-.332s-.396-.285-.568-.458c-.172-.172-.325-.361-.458-.568-.133-.207-.246-.435-.339-.686-.093-.25-.165-.519-.214-.804-.049-.285-.074-.585-.074-.9s.024-.612.074-.893ZM41.824,16.662c-.291-.359-.647-.539-1.07-.539s-.777.18-1.062.539c-.286.359-.428.897-.428,1.615,0,.738.143,1.286.428,1.645.285.359.639.539,1.062.539s.779-.179,1.07-.539c.29-.359.435-.907.435-1.645,0-.718-.145-1.256-.435-1.615Z"/><path class="cls-3" d="M49.495,15.371c.044-.029.091-.044.14-.044h1.46c.059,0,.108.015.147.044.04.03.064.069.074.118l1.166,3.747.871-4.662c.01-.069.034-.113.074-.133.039-.02.083-.03.133-.03h1.667c.069,0,.118.027.147.081.03.054.04.111.03.17l-1.579,7.317c-.01.059-.04.106-.088.14-.049.035-.104.052-.163.052h-1.859c-.069,0-.128-.017-.177-.052-.049-.034-.079-.081-.089-.14l-1.121-3.792-1.106,3.792c-.02.059-.052.106-.096.14-.044.035-.101.052-.17.052h-1.859c-.069,0-.125-.017-.169-.052-.044-.034-.072-.081-.082-.14l-1.578-7.303c-.01-.069,0-.13.029-.185.029-.054.079-.081.147-.081h1.726c.049,0,.098.01.147.03.049.02.079.064.089.133l.87,4.618,1.136-3.703c.01-.049.037-.088.081-.118Z"/><path class="cls-3" d="M58.369,18.823c.068.61.248,1.058.538,1.343s.662.428,1.114.428c.275,0,.526-.069.752-.207.226-.138.417-.344.575-.62.029-.039.066-.069.11-.088.044-.02.101-.024.17-.015l1.52.265c.088.02.147.052.177.096.029.044.034.101.015.169-.049.128-.111.253-.185.376s-.155.246-.243.369c-.089.123-.189.241-.303.354-.113.113-.236.221-.369.325-.133.103-.28.194-.443.273-.162.079-.337.147-.523.207-.187.059-.389.105-.605.14-.216.034-.448.052-.693.052-.275,0-.543-.022-.804-.066-.261-.044-.509-.113-.745-.207-.236-.093-.457-.204-.664-.332s-.398-.278-.576-.45c-.177-.172-.332-.364-.464-.575s-.249-.442-.347-.693c-.099-.251-.172-.517-.222-.797s-.074-.578-.074-.893.024-.612.074-.893.121-.543.214-.789c.094-.246.209-.472.347-.679.137-.207.29-.396.457-.568.167-.172.352-.325.553-.458s.416-.243.642-.332c.226-.088.462-.155.708-.199.246-.044.501-.066.767-.066s.521.022.767.066c.246.044.479.113.701.207.222.094.428.207.62.339.192.133.371.286.539.458.167.172.312.364.435.575.123.212.231.44.325.686.093.246.163.509.207.79.044.28.066.573.066.878,0,.177-.017.31-.052.398-.034.089-.105.133-.214.133h-4.868ZM58.922,16.322c-.261.231-.436.612-.524,1.144h2.877c-.088-.531-.263-.913-.524-1.144s-.573-.347-.937-.347c-.334,0-.632.116-.893.347Z"/><path class="cls-3" d="M64.912,22.098c-.035-.049-.052-.108-.052-.177v-7.273c0-.069.017-.125.052-.17.034-.044.101-.066.199-.066h1.874c.079,0,.14.022.184.066.044.044.066.101.066.17v1.387c.236-.62.583-1.072,1.041-1.357.457-.285.927-.428,1.409-.428.039,0,.081.002.125.007.044.005.086.012.125.022.098.01.167.032.207.066.039.035.059.086.059.155l-.03,1.682c-.01.099-.035.162-.074.192-.04.029-.094.039-.162.029-.118-.01-.236-.02-.354-.029-.118-.01-.227-.015-.325-.015-.571,0-1.05.212-1.438.635-.389.423-.583.964-.583,1.623v3.305c0,.069-.022.128-.066.177-.044.049-.105.074-.184.074h-1.874c-.099,0-.165-.024-.199-.074Z"/><path class="cls-3" d="M73.019,18.823c.068.61.248,1.058.538,1.343s.662.428,1.114.428c.275,0,.526-.069.752-.207.226-.138.417-.344.575-.62.029-.039.066-.069.11-.088.044-.02.101-.024.17-.015l1.52.265c.088.02.147.052.177.096.029.044.034.101.015.169-.049.128-.111.253-.185.376s-.155.246-.243.369c-.089.123-.189.241-.303.354-.113.113-.236.221-.369.325-.133.103-.28.194-.443.273-.162.079-.337.147-.523.207-.187.059-.389.105-.605.14-.216.034-.448.052-.693.052-.275,0-.543-.022-.804-.066-.261-.044-.509-.113-.745-.207-.236-.093-.457-.204-.664-.332s-.398-.278-.576-.45c-.177-.172-.332-.364-.464-.575s-.249-.442-.347-.693c-.099-.251-.172-.517-.222-.797s-.074-.578-.074-.893.024-.612.074-.893.121-.543.214-.789c.094-.246.209-.472.347-.679.137-.207.29-.396.457-.568.167-.172.352-.325.553-.458s.416-.243.642-.332c.226-.088.462-.155.708-.199.246-.044.501-.066.767-.066s.521.022.767.066c.246.044.479.113.701.207.222.094.428.207.62.339.192.133.371.286.539.458.167.172.312.364.435.575.123.212.231.44.325.686.093.246.163.509.207.79.044.28.066.573.066.878,0,.177-.017.31-.052.398-.034.089-.105.133-.214.133h-4.868ZM73.572,16.322c-.261.231-.436.612-.524,1.144h2.877c-.088-.531-.263-.913-.524-1.144s-.573-.347-.937-.347c-.334,0-.632.116-.893.347Z"/><path class="cls-3" d="M81.634,22.201c-.236-.059-.46-.145-.671-.258-.211-.113-.408-.253-.59-.42-.182-.167-.344-.362-.487-.583s-.263-.47-.361-.745c-.099-.275-.175-.573-.229-.893-.054-.319-.081-.661-.081-1.025s.027-.706.081-1.025c.054-.319.13-.614.229-.885.098-.271.219-.517.361-.738s.305-.416.487-.583c.182-.167.379-.307.59-.42.211-.113.435-.199.671-.258.236-.059.487-.089.752-.089.501,0,.932.116,1.291.347.359.231.647.559.863.981v-3.512c0-.068.02-.127.059-.177.039-.049.103-.074.192-.074h1.859c.098,0,.167.024.207.074.039.049.059.108.059.177v9.826c0,.069-.02.128-.059.177-.04.049-.108.074-.207.074h-1.859c-.089,0-.153-.024-.192-.074-.04-.049-.059-.108-.059-.177v-.974c-.216.423-.504.752-.863.989-.359.236-.789.354-1.291.354-.266,0-.517-.03-.752-.089ZM84.12,19.871c.28-.354.42-.885.42-1.594,0-.718-.14-1.251-.42-1.601s-.632-.524-1.055-.524-.777.175-1.062.524-.428.883-.428,1.601c0,.708.143,1.239.428,1.594.285.354.639.531,1.062.531s.775-.177,1.055-.531Z"/><path class="cls-3" d="M91.762,22.098c-.035-.049-.052-.108-.052-.177v-9.826c0-.068.017-.127.052-.177.034-.049.101-.074.199-.074h1.874c.079,0,.14.024.184.074.044.049.066.108.066.177v3.512c.216-.423.507-.75.871-.981.364-.231.797-.347,1.298-.347.915,0,1.669.349,2.265,1.047.595.699.893,1.682.893,2.951,0,1.279-.298,2.267-.893,2.965-.595.699-1.35,1.048-2.265,1.048-.501,0-.935-.116-1.298-.347s-.654-.558-.871-.981v.959c0,.069-.022.128-.066.177-.044.049-.105.074-.184.074h-1.874c-.099,0-.165-.024-.199-.074ZM96.63,19.871c.29-.354.436-.885.436-1.594,0-.718-.146-1.251-.436-1.601s-.646-.524-1.069-.524-.774.175-1.055.524c-.281.349-.421.883-.421,1.601,0,.708.14,1.239.421,1.594.28.354.632.531,1.055.531s.779-.177,1.069-.531Z"/><path class="cls-3" d="M100.916,25.277c-.334-.044-.62-.13-.855-.258-.069-.02-.113-.051-.133-.096-.02-.044-.025-.096-.015-.155l.442-1.49c.01-.059.039-.099.089-.118.049-.02.098-.024.147-.015.177.069.356.133.538.192.182.059.352.088.509.088.246,0,.455-.059.627-.177.172-.118.337-.379.494-.782l-2.951-7.775c-.029-.068-.027-.133.007-.192.035-.059.096-.088.185-.088h2.065c.059,0,.105.013.14.037.034.024.062.062.081.11l1.697,5.061,1.771-5.061c.01-.049.039-.086.088-.11s.093-.037.133-.037h1.918c.088,0,.147.03.177.088.03.059.035.118.015.177l-3.054,8.144c-.364.964-.809,1.625-1.335,1.984-.526.359-1.144.539-1.852.539-.286,0-.595-.022-.93-.066Z"/></g><g id="G_Image"><path d="M126.24,50.768c.54-5.063,3.798-10.769,7.612-14.068,12.261-10.608,31.322-4.96,35.982,10.318h-5.508c-9.231-20.247-39.43-8.284-31.697,12.947,5.482,15.052,27.901,14.135,32.049-1.229h-17.812v-5.625h24.141c.28,11.044-8.57,21.784-19.688,22.969h-5.625c-10.089-1.493-17.954-9.335-19.453-19.453.144-1.878-.196-4.019,0-5.859Z"/></g><g id="I" class="cls-2"><g id="I-2"><rect class="cls-1" x="100.74" y="31.08" width="5.5" height="45"/></g></g><g id="M"><polygon class="cls-3" points="225.24 71.484 194.561 71.409 210.497 53.58 194.479 35.528 225.24 35.676 225.24 31.08 189.24 31.08 189.24 37.011 203.974 53.522 189.24 70.133 189.24 76.08 225.24 76.08 225.24 71.484"/></g><g id="A_Image"><path d="M243.24,75.848c7.317-14.766,14.201-29.794,21.478-44.55l2.079-.002,21.211,44.785h-6.031l-8.854-17.82-14.697-.291-9.155,18.111h-6.031v-.232ZM260.637,53.116h9.974l-4.984-10.208-4.99,10.208Z"/></g><g id="S_Image"><path d="M65.509,31.08c7.145.654,14.894,5.32,14.824,13.25h-6.353c-.179,0-.171-2.528-.591-3.545-2.868-6.936-18.829-6.924-20.336.882s12.089,8.945,16.978,10.776c16.935,6.341,12.417,22.33-4.05,23.594-1.543-.099-3.173.135-4.706,0-7.116-.629-16.345-4.879-16-13.25h6.353c.133,0,.058,1.917.302,2.654,2.936,8.875,25.461,7.944,21.828-3.258-2.541-7.836-23.227-5.291-26.47-15.736-2.891-9.31,5.696-14.65,13.752-15.367h4.471Z"/></g></svg>